<?xml version="1.0" encoding="UTF-8"?>
<svg width="363px" height="122px" viewBox="0 0 363 122" version="1.1" xmlns="http://www.w3.org/2000/svg" xmlns:xlink="http://www.w3.org/1999/xlink">
    <!-- Generator: Sketch 59.1 (86144) - https://sketch.com -->
    <title>Logo</title>
    <desc>Created with Sketch.</desc>
    <defs>
        <linearGradient x1="87.8758531%" y1="10.3514803%" x2="7.43625001%" y2="100%" id="linearGradient-1">
            <stop stop-color="#56388B" offset="0%"></stop>
            <stop stop-color="#E014E0" offset="52.1748311%"></stop>
            <stop stop-color="#DC1010" offset="100%"></stop>
        </linearGradient>
    </defs>
    <g id="Page-1" stroke="none" stroke-width="1" fill="none" fill-rule="evenodd">
        <g id="Logo">
            <path d="M30.0712215,0 L30.071,11.533 L79.895,11.533 L79.8954037,-1.24344979e-14 L89.8223409,-1.24344979e-14 L89.822,11.533 L93.8511978,11.5333748 C102.645547,11.5333748 109.794598,18.5777313 109.963567,27.33166 L109.966625,27.6488022 L109.966625,105.384573 C109.966625,114.284877 102.751503,121.5 93.8511978,121.5 L93.8511978,121.5 L16.1154274,121.5 C7.21512261,121.5 -7.10542736e-15,114.284877 -7.10542736e-15,105.384573 L-7.10542736e-15,105.384573 L-7.10542736e-15,27.6488022 C-7.10542736e-15,18.7484974 7.21512261,11.5333748 16.1154274,11.5333748 L16.1154274,11.5333748 L20.144,11.533 L20.1442843,0 L30.0712215,0 Z M55.0233014,81.4711349 C46.6814418,81.9083132 37.7931783,85.3366905 28.9772329,90.8314653 C26.1354154,92.6027044 23.4669976,94.487333 21.0211963,96.3935062 C22.1375716,96.8144763 23.3627692,97.2334904 24.700225,97.6447384 C29.3835716,99.0847984 34.9500747,100.274946 41.4607213,101.109031 C48.1929684,101.971506 56.7669367,100.415955 72.5181164,96.1389079 L74.265155,95.6615103 C78.4257448,94.5177783 82.5739973,93.5921833 86.6678349,92.8487721 L88.4188825,92.5412166 L87.2180621,91.7999001 C86.0051559,91.0628208 84.7568803,90.3394505 83.4812245,89.6387655 C73.4219765,84.1134786 63.599075,81.0216976 55.0233014,81.4711349 Z M36.5478403,42.4541751 C32.2380831,47.5903437 28.594516,53.4811393 25.5717447,59.9921 C21.3784033,69.0244342 18.5707428,78.7815542 16.9005611,88.5667835 C16.8086709,89.1051482 16.7213431,89.6374266 16.6384478,90.1632821 L16.517413,90.9472059 L18.0545124,89.7741531 C23.8943428,85.3744046 30.004347,81.4205207 36.1947333,78.2579809 C39.2308488,76.7068926 41.8713122,75.826271 46.643993,74.606751 L49.5527015,73.8738667 C57.7134211,71.7761618 61.0680761,70.1472291 64.573068,65.9701334 C66.677016,63.4627458 68.116142,61.2371005 69.5547922,58.4113793 L70.143934,57.22257 L71.5560439,54.2348913 C74.6074885,47.7933829 76.2930797,44.8878113 80.2531388,39.7712945 C83.1604798,36.0149214 86.0426762,32.8629227 88.866328,30.2340745 L89.5168855,29.636667 L88.1804087,29.4296114 C83.7057501,28.7660279 79.039649,28.3718064 74.3596228,28.3472625 C58.0896423,28.2619362 44.8431453,32.5682155 36.5478403,42.4541751 Z" id="Rectangle" fill="url(#linearGradient-1)" fill-rule="nonzero"></path>
            <text id="PIXIE-CALENDAR" fill="#E014E0" font-family="BerlinX-Bold, Berlin XBold" font-size="50" font-style="expanded" font-weight="bold" line-spacing="45" letter-spacing="-0.0520833333">
                <tspan x="126" y="73.75">PIXIE</tspan>
                <tspan x="126" y="118.75">CALENDAR</tspan>
            </text>
        </g>
    </g>
</svg>